# xmcd CD database file
# Copyright (C) 1995 Ti Kan
#
# Track frame offsets:
#	150
#	16325
#	27650
#	49925
#	62825
#	74750
#	89675
#	104075
#	116300
#	133625
#
# Disc length: 1965 seconds
#
# Revision: 1
# Processed by: cddbd v1.4b41PL1 Copyright (c) Steve Scherf et al.
# Submitted via: xmcd 1.4
#
DISCID=9707ab0a
DTITLE=Sonny Terry - Robbin' the Grave
DYEAR=1900
DGENRE=
TTITLE0=Feel Like Robbin' the Grave
TTITLE1=Selling Out
TTITLE2=Black Night Road
TTITLE3=That Train and My Woman
TTITLE4=Playing with the Thing
TTITLE5=Cut off from My Baby
TTITLE6=Mean Old Woman
TTITLE7=One Woman Man
TTITLE8=Cold Wind Blowing
TTITLE9=The Boogie
EXTD=
EXTT0=
EXTT1=
EXTT2=
EXTT3=
EXTT4=
EXTT5=
EXTT6=
EXTT7=
EXTT8=
EXTT9=
PLAYORDER=
